<?xml version="1.0" standalone="no"?>
<!DOCTYPE svg PUBLIC "-//W3C//DTD SVG 20010904//EN"
 "http://www.w3.org/TR/2001/REC-SVG-20010904/DTD/svg10.dtd">
<svg version="1.0" xmlns="http://www.w3.org/2000/svg"
 width="50.000000pt" height="50.000000pt" viewBox="0 0 50.000000 50.000000"
 preserveAspectRatio="xMidYMid meet">

<g transform="translate(0.000000,50.000000) scale(0.100000,-0.100000)"
fill="#000000" stroke="none">
<path d="M327 430 c-14 -11 -31 -20 -39 -20 -22 0 -78 -63 -78 -88 0 -12 9
-31 20 -42 18 -18 33 -20 128 -20 93 0 111 3 125 18 23 25 21 55 -3 77 -11 10
-20 24 -20 32 0 23 -51 63 -80 63 -15 0 -39 -9 -53 -20z"/>
<path d="M42 408 c-8 -8 -12 -54 -12 -140 0 -107 -2 -128 -15 -128 -20 0 -19
-24 1 -44 23 -24 445 -24 468 0 20 20 21 44 1 44 -11 0 -15 12 -15 50 0 64
-18 66 -22 3 l-3 -48 -195 0 -195 0 0 125 0 125 90 3 c127 4 135 22 9 22 -64
0 -104 -4 -112 -12z"/>
</g>
</svg>
