<svg xmlns="http://www.w3.org/2000/svg" version="1.0" width="512.000000pt" height="512.000000pt" viewBox="0 0 512.000000 512.000000" preserveAspectRatio="xMidYMid meet">
    <g transform="translate(0.000000,512.000000) scale(0.100000,-0.100000)" fill="#c27aff" stroke="none">
        <path d="M1126 4950 c-60 -18 -106 -85 -106 -154 0 -31 42 -124 86 -191 14 -21 12 -24 -77 -80 -337 -214 -641 -560 -811 -925 -238 -510 -280 -1089 -117 -1623 44 -144 116 -307 152 -345 36 -37 89 -55 137 -46 30 6 237 121 533 296 104 61 121 75 138 111 10 23 19 53 19 66 0 14 -20 84 -44 155 -57 171 -71 250 -71 426 0 167 14 253 62 400 91 280 278 520 530 683 l42 27 42 -73 c23 -39 49 -81 58 -91 20 -24 88 -55 120 -56 40 0 109 39 130 74 11 17 75 236 142 486 94 354 120 464 116 497 -6 57 -46 107 -99 127 -73 26 -906 246 -930 245 -13 0 -36 -5 -52 -9z"/>
        <path d="M2654 4940 c-32 -13 -82 -76 -89 -112 -3 -18 -5 -190 -3 -383 3 -348 3 -350 26 -383 32 -44 68 -61 168 -78 431 -75 787 -345 965 -730 66 -142 119 -361 119 -491 l0 -43 -92 0 c-107 0 -162 -19 -197 -68 -32 -46 -38 -110 -13 -158 12 -22 168 -185 364 -381 298 -297 348 -342 381 -348 90 -17 84 -21 455 348 196 196 352 359 364 381 25 48 19 112 -13 158 -35 48 -90 68 -195 68 l-91 0 -7 113 c-13 216 -42 375 -108 577 -216 669 -739 1200 -1403 1427 -252 86 -552 135 -631 103z"/>
        <path d="M3614 1681 c-16 -10 -61 -55 -99 -101 -333 -399 -892 -559 -1382 -395 -100 34 -233 95 -233 108 0 5 19 42 41 81 67 114 64 193 -6 255 -63 55 -68 55 -567 -79 -249 -67 -468 -128 -485 -137 -39 -18 -73 -70 -80 -121 -3 -27 30 -162 116 -482 65 -245 124 -457 129 -471 15 -37 76 -87 118 -95 82 -15 140 26 209 150 l36 64 107 -54 c373 -189 804 -272 1208 -233 502 48 943 241 1317 576 159 143 350 379 363 450 9 47 -9 103 -43 135 -16 15 -161 104 -323 197 -274 159 -298 171 -345 171 -31 0 -61 -7 -81 -19z"/>
    </g>
</svg>