<svg xmlns="http://www.w3.org/2000/svg" version="1.0" width="512.000000pt" height="512.000000pt" viewBox="0 0 512.000000 512.000000" preserveAspectRatio="xMidYMid meet">
    <g transform="translate(0.000000,512.000000) scale(0.100000,-0.100000)" fill="#c27aff" stroke="none">
        <path d="M3163 4099 c-495 -48 -949 -338 -1193 -763 -409 -713 -201 -1605 480 -2061 518 -347 1194 -346 1715 0 229 152 407 357 530 610 62 127 94 221 127 367 20 89 23 130 23 308 0 178 -3 219 -23 308 -81 360 -267 668 -533 884 -112 91 -173 130 -298 192 -170 86 -349 136 -556 156 -121 11 -151 11 -272 -1z m235 -766 c15 -11 37 -35 50 -53 22 -32 22 -38 22 -344 l0 -311 171 -170 c94 -94 177 -182 185 -197 66 -125 -89 -280 -214 -214 -15 8 -120 108 -234 223 -176 177 -208 214 -218 251 -7 29 -10 152 -8 385 3 324 4 344 24 377 30 52 88 82 147 77 27 -2 60 -13 75 -24z"/>
        <path d="M992 3553 c-49 -24 -75 -68 -80 -132 -5 -70 22 -115 88 -149 44 -22 49 -23 345 -20 295 3 301 3 338 27 51 31 81 91 74 149 -5 50 -29 87 -77 120 -32 22 -38 22 -344 22 -266 0 -316 -3 -344 -17z"/>
        <path d="M370 2709 c-14 -6 -36 -20 -48 -32 -78 -72 -68 -185 21 -251 28 -21 39 -21 553 -24 506 -2 525 -2 563 17 112 58 113 224 0 281 -37 19 -60 20 -551 19 -316 0 -523 -4 -538 -10z"/>
        <path d="M1000 1848 c-66 -34 -93 -79 -88 -149 5 -65 32 -109 82 -133 29 -14 79 -16 344 -16 304 0 310 0 342 23 48 32 72 69 77 119 7 58 -23 118 -74 149 -37 24 -43 24 -338 27 -296 3 -301 2 -345 -20z"/>
    </g>
</svg>