<svg xmlns="http://www.w3.org/2000/svg" version="1.0" width="512.000000pt" height="512.000000pt" viewBox="0 0 512.000000 512.000000" preserveAspectRatio="xMidYMid meet">
    <g transform="translate(0.000000,512.000000) scale(0.100000,-0.100000)" fill="#c27aff" stroke="none">
        <path d="M2377 5109 c-640 -74 -1181 -512 -1381 -1119 -71 -215 -86 -341 -86 -725 l0 -290 -52 -24 c-69 -32 -167 -130 -200 -201 -48 -103 -50 -133 -45 -595 5 -480 11 -536 82 -769 94 -310 251 -572 485 -807 320 -322 709 -512 1159 -564 932 -109 1813 470 2087 1373 70 231 76 288 81 767 5 463 3 493 -45 595 -34 71 -132 170 -199 200 l-51 24 -5 346 c-3 266 -8 365 -21 433 -96 499 -383 905 -819 1155 -286 163 -661 240 -990 201z m443 -314 c168 -34 349 -110 500 -210 96 -64 291 -259 355 -355 69 -103 129 -225 164 -334 59 -178 63 -214 68 -568 l5 -328 -151 0 -151 0 0 269 c0 311 -8 385 -57 534 -98 297 -335 544 -621 647 -155 56 -203 64 -377 64 -129 -1 -175 -5 -235 -22 -203 -55 -366 -146 -501 -281 -135 -135 -226 -297 -282 -501 -18 -66 -21 -111 -25 -392 l-4 -318 -150 0 -150 0 5 328 c5 354 9 390 68 568 65 200 165 360 324 520 224 227 493 358 815 398 67 8 326 -4 400 -19z m-112 -591 c295 -61 525 -291 586 -586 12 -59 16 -139 16 -348 l0 -270 -750 0 -750 0 0 270 c0 208 4 289 16 348 83 405 481 669 882 586z m1422 -1524 c26 -13 47 -34 61 -61 20 -41 21 -50 16 -453 -4 -440 -8 -485 -63 -673 -157 -542 -585 -971 -1127 -1127 -163 -47 -258 -60 -457 -60 -199 0 -294 13 -457 60 -548 159 -982 598 -1133 1146 -49 178 -52 214 -57 647 -6 471 -6 470 71 516 l41 25 1533 0 c1517 0 1533 0 1572 -20z"/>
        <path d="M2455 2386 c-84 -21 -147 -57 -211 -121 -173 -173 -178 -438 -11 -621 28 -31 73 -65 112 -85 l65 -34 0 -403 c0 -384 1 -405 20 -442 23 -45 80 -80 130 -80 50 0 107 35 130 80 19 37 20 58 20 442 l0 403 53 25 c64 30 164 128 196 193 89 184 58 381 -84 523 -112 113 -269 158 -420 120z m175 -306 c45 -23 80 -80 80 -131 0 -74 -76 -149 -151 -149 -46 0 -108 39 -130 82 -37 72 -14 151 57 194 48 29 92 30 144 4z"/>
    </g>
</svg>