<?xml version="1.0" standalone="no"?>
<!DOCTYPE svg PUBLIC "-//W3C//DTD SVG 20010904//EN"
 "http://www.w3.org/TR/2001/REC-SVG-20010904/DTD/svg10.dtd">
<svg version="1.0" xmlns="http://www.w3.org/2000/svg"
 width="512.000000pt" height="512.000000pt" viewBox="0 0 512.000000 512.000000"
 preserveAspectRatio="xMidYMid meet">

<g transform="translate(0.000000,512.000000) scale(0.100000,-0.100000)"
fill="#c27aff" stroke="none">
<path d="M2224 4832 c-141 -49 -233 -173 -250 -336 l-7 -65 514 -4 c570 -4
562 -3 705 -73 180 -88 314 -255 365 -452 17 -69 19 -113 19 -519 0 -346 3
-445 13 -448 6 -2 200 -6 430 -7 l418 -3 -3 815 -3 815 -23 57 c-29 71 -75
129 -137 174 -94 67 -51 64 -1069 64 -852 -1 -925 -2 -972 -18z"/>
<path d="M944 4192 c-101 -35 -186 -118 -225 -220 -16 -43 -23 -87 -26 -177
l-6 -120 839 0 c784 0 843 -1 904 -18 144 -41 291 -127 380 -223 25 -27 115
-146 199 -264 84 -118 160 -221 169 -227 10 -8 48 -13 99 -13 l83 0 0 428 c0
462 -3 490 -55 594 -57 113 -161 200 -282 238 -63 19 -91 20 -1047 20 -909 -1
-985 -2 -1032 -18z"/>
<path d="M766 3460 c-73 -13 -144 -38 -206 -73 -79 -44 -179 -149 -222 -232
-72 -138 -68 -71 -68 -1283 0 -749 3 -1108 11 -1144 20 -97 83 -211 158 -286
76 -76 194 -142 289 -161 75 -15 3590 -15 3664 0 97 20 211 83 286 158 76 76
142 194 161 289 7 35 11 295 11 770 0 789 1 772 -62 902 -44 91 -168 214 -262
259 -124 59 -142 61 -776 61 -388 0 -588 4 -615 11 -80 22 -116 60 -270 276
-217 304 -244 333 -375 399 -120 60 -87 58 -915 60 -418 1 -782 -2 -809 -6z
m1234 -1512 c48 -33 72 -70 77 -120 7 -58 -23 -118 -74 -149 l-38 -24 -365 0
-365 0 -38 24 c-51 31 -81 91 -74 149 5 50 29 87 77 120 33 22 36 22 400 22
364 0 367 0 400 -22z m6 -534 c53 -39 69 -71 69 -134 0 -63 -16 -95 -69 -134
-26 -20 -42 -21 -384 -24 -234 -2 -370 1 -394 8 -101 29 -140 168 -71 251 50
58 53 59 455 56 353 -2 368 -3 394 -23z"/>
</g>
</svg>
