<?xml version="1.0" standalone="no"?>
<!DOCTYPE svg PUBLIC "-//W3C//DTD SVG 20010904//EN"
 "http://www.w3.org/TR/2001/REC-SVG-20010904/DTD/svg10.dtd">
<svg version="1.0" xmlns="http://www.w3.org/2000/svg"
 width="512.000000pt" height="512.000000pt" viewBox="0 0 512.000000 512.000000"
 preserveAspectRatio="xMidYMid meet">

<g transform="translate(0.000000,512.000000) scale(0.100000,-0.100000)"
fill="#000000" stroke="none">
<path d="M1249 4667 c-59 -39 -69 -73 -69 -238 l0 -146 -42 -12 c-24 -7 -78
-29 -120 -48 l-78 -36 -105 101 c-113 110 -152 130 -222 117 -31 -6 -60 -29
-166 -133 -71 -70 -135 -139 -143 -154 -21 -40 -18 -115 7 -154 11 -18 61 -71
112 -118 l91 -84 -33 -66 c-18 -36 -40 -89 -50 -118 l-18 -53 -149 -6 c-165
-6 -195 -15 -236 -71 -22 -32 -23 -40 -23 -235 0 -188 1 -203 21 -229 47 -64
62 -69 231 -74 l155 -5 28 -75 c15 -41 37 -95 49 -119 l23 -43 -105 -107 c-61
-62 -108 -118 -112 -134 -4 -16 -5 -49 -2 -74 5 -43 13 -54 133 -175 139 -140
164 -158 218 -158 58 0 86 17 186 116 l97 95 32 -73 c18 -40 52 -105 77 -144
24 -40 44 -75 44 -78 0 -4 -38 -51 -85 -106 l-85 -98 -39 10 c-50 13 -110 -4
-148 -40 -76 -73 -592 -689 -618 -739 -41 -78 -47 -190 -15 -277 27 -70 113
-160 205 -215 50 -30 68 -35 140 -39 103 -5 166 13 229 69 63 56 623 711 636
744 13 35 13 101 -2 141 -11 31 -10 33 75 132 l87 100 78 -34 c154 -66 226
-79 432 -79 206 0 272 13 435 82 169 72 369 235 467 381 l35 52 29 -31 c16
-17 63 -57 105 -90 43 -34 87 -79 100 -102 24 -42 24 -44 21 -288 -2 -241 -2
-246 20 -279 36 -53 73 -74 136 -80 l57 -5 6 -90 c8 -128 49 -198 136 -234 28
-11 31 -18 37 -72 9 -89 45 -144 109 -168 43 -16 330 -14 370 3 63 26 107 102
107 186 0 31 5 38 45 59 84 44 125 127 125 253 l0 68 54 0 c59 0 103 23 140
73 20 27 21 41 21 280 0 246 1 253 23 293 13 22 57 67 98 99 345 270 524 717
460 1145 -40 265 -157 493 -350 686 -184 185 -402 299 -656 345 -114 21 -432
18 -540 -5 -353 -76 -659 -295 -825 -591 -16 -27 -30 -52 -31 -54 -2 -2 -19
10 -38 27 -19 16 -55 44 -80 61 -35 25 -48 41 -57 73 -6 24 -26 72 -44 109
l-34 66 90 89 c50 49 99 104 110 122 25 38 27 107 6 148 -9 16 -73 86 -144
155 -104 103 -135 128 -165 133 -71 13 -105 -6 -213 -114 -55 -55 -105 -100
-111 -100 -6 0 -44 15 -85 34 -41 19 -93 40 -116 47 l-43 12 0 146 c0 165 -10
199 -69 238 -32 22 -43 23 -231 23 -188 0 -199 -1 -231 -23z m411 -279 c4
-140 8 -180 20 -191 8 -8 49 -24 90 -37 41 -12 113 -41 159 -66 46 -24 94 -44
108 -44 18 0 57 32 147 120 68 66 128 120 134 120 21 0 232 -220 232 -242 0
-14 -42 -63 -120 -143 -66 -66 -120 -126 -120 -131 0 -6 16 -41 36 -78 19 -37
34 -69 32 -71 -2 -2 -30 6 -63 17 -95 32 -201 49 -325 52 -110 3 -117 5 -162
35 -106 71 -213 103 -346 103 -210 -1 -405 -104 -519 -274 -75 -113 -98 -195
-97 -348 0 -109 4 -135 27 -202 l27 -78 -21 -82 c-26 -104 -36 -305 -20 -408
l12 -75 -114 -112 c-62 -62 -121 -113 -131 -113 -26 0 -236 212 -236 239 0 16
35 57 114 136 63 62 117 122 120 133 4 12 -11 52 -43 113 -27 52 -59 128 -70
169 -12 41 -29 81 -38 88 -12 8 -66 12 -183 12 -116 0 -170 4 -178 12 -8 8
-12 61 -12 175 0 150 1 163 19 173 11 6 90 10 184 10 122 0 167 3 175 13 6 7
23 51 37 97 15 47 48 124 73 172 l46 86 -29 43 c-17 23 -72 81 -122 128 -62
57 -93 92 -93 107 0 26 210 244 235 244 9 0 70 -54 137 -120 82 -81 128 -120
143 -120 13 0 60 20 106 44 46 24 118 54 159 66 111 32 110 30 110 229 0 92 3
171 7 175 4 3 84 5 177 4 l171 -3 5 -177z m2447 -443 c356 -68 648 -301 794
-635 209 -476 73 -1012 -337 -1326 -78 -60 -126 -122 -147 -188 -12 -42 -15
-217 -7 -397 6 -132 9 -129 -146 -129 l-123 0 -3 298 -3 297 -30 54 c-34 61
-94 115 -151 134 -36 13 -39 17 -42 55 l-3 42 325 0 c313 0 327 1 346 20 19
19 20 33 20 325 0 292 -1 306 -20 325 -28 28 -65 26 -87 -6 -48 -70 -102 -95
-159 -74 -100 38 -119 161 -34 218 29 19 44 23 84 19 50 -4 58 -10 117 -84 14
-18 59 -16 81 4 17 15 18 39 18 334 l0 318 -26 20 c-25 20 -39 21 -240 21
l-214 0 10 26 c16 42 11 135 -9 179 -86 186 -349 192 -444 10 -22 -43 -28
-125 -14 -182 l9 -33 -229 0 c-191 0 -232 -3 -251 -16 -22 -15 -22 -19 -22
-245 l0 -230 -22 8 c-29 10 -145 10 -178 0 -22 -7 -27 -3 -45 30 -11 20 -46
72 -77 114 l-57 77 44 77 c56 98 83 133 169 223 168 175 384 288 624 327 106
18 362 12 479 -10z m-147 -140 c36 -19 60 -62 60 -110 0 -37 -24 -95 -39 -95
-4 0 -20 -11 -35 -25 -30 -28 -33 -60 -9 -87 15 -17 37 -18 280 -18 l263 0 0
-196 c0 -183 -1 -196 -17 -189 -10 5 -45 10 -79 13 -143 10 -256 -95 -256
-238 0 -96 50 -177 136 -222 43 -22 128 -29 184 -15 l32 9 0 -181 0 -181 -285
0 c-266 0 -285 1 -285 18 0 12 15 23 48 34 112 40 186 148 186 272 1 162 -112
282 -274 293 -117 9 -227 -54 -281 -159 -30 -59 -37 -160 -15 -226 23 -68 92
-144 162 -177 94 -44 73 -50 -199 -53 l-247 -2 0 270 0 271 -25 24 c-13 14
-31 25 -41 25 -16 0 -74 -55 -74 -71 0 -11 -54 -39 -74 -39 -9 0 -18 12 -22
28 -3 15 -17 67 -30 116 -28 103 -25 109 45 102 38 -3 51 -11 92 -55 26 -28
54 -51 63 -51 10 0 28 11 41 25 l25 24 0 266 0 265 279 0 c278 0 280 0 295 22
25 35 19 54 -28 93 -70 57 -83 128 -34 190 36 46 103 58 158 30z m-2325 -111
c28 -9 53 -20 58 -23 4 -4 -26 -17 -65 -30 -176 -56 -370 -184 -485 -319 -60
-72 -128 -171 -139 -204 -12 -40 -24 5 -24 95 0 148 48 257 162 362 138 128
328 174 493 119z m430 -124 c342 -39 639 -243 781 -538 72 -147 96 -258 97
-432 1 -175 -20 -273 -88 -418 -58 -122 -114 -199 -211 -292 -188 -180 -417
-272 -674 -272 -169 0 -313 36 -469 118 -29 15 -58 23 -69 20 -10 -4 -65 -62
-123 -131 -57 -68 -108 -124 -112 -125 -8 0 -180 147 -185 158 -1 4 45 63 103
131 70 81 105 131 105 147 0 13 -20 52 -45 85 -59 81 -118 202 -152 314 -24
83 -27 104 -27 260 0 156 3 177 27 258 55 178 130 307 252 431 154 157 361
261 574 286 96 11 117 11 216 0z m1858 -814 c72 -29 116 -118 98 -197 -18 -81
-71 -128 -152 -135 -75 -7 -135 23 -167 86 -46 90 -11 209 72 246 40 17 108
18 149 0z m-753 -340 c0 -231 0 -235 22 -250 19 -14 66 -16 310 -16 l288 0 0
-39 c0 -38 -2 -40 -46 -55 -64 -22 -124 -73 -159 -137 l-30 -54 -3 -297 -3
-298 -124 0 c-88 0 -126 4 -132 13 -4 6 -8 118 -8 247 0 311 -7 331 -163 457
-48 39 -102 87 -121 106 l-33 35 27 67 c42 105 65 211 72 326 l6 106 36 10
c20 6 42 11 49 12 9 1 12 -52 12 -233z m620 -811 l0 -335 -60 0 -60 0 0 275
c0 303 3 320 59 368 63 52 61 61 61 -308z m171 308 c56 -48 59 -65 59 -368 l0
-275 -55 0 -55 0 0 335 c0 198 4 335 9 335 5 0 24 -12 42 -27z m-3065 -320
c62 -46 162 -131 237 -202 37 -35 57 -62 57 -77 0 -27 -560 -693 -616 -733
-102 -73 -277 -12 -354 123 -36 62 -41 151 -12 203 14 28 502 607 584 695 14
15 33 28 41 28 8 0 36 -17 63 -37z m3288 -525 c-2 -146 -13 -151 -354 -149
-285 1 -293 3 -317 72 -11 32 -18 141 -9 150 2 2 157 3 343 3 l338 -2 -1 -74z
m-167 -309 c-9 -68 -16 -71 -173 -70 -129 1 -140 2 -156 22 -10 12 -18 36 -18
55 l0 34 176 0 177 0 -6 -41z"/>
<path d="M1800 3375 c-278 -63 -507 -273 -589 -540 -66 -211 -40 -434 72 -635
55 -98 187 -233 283 -288 406 -235 927 -72 1124 351 96 205 94 477 -5 683 -95
196 -294 360 -510 419 -85 23 -292 29 -375 10z m332 -124 c244 -63 437 -255
493 -492 17 -73 19 -242 5 -309 -38 -167 -154 -331 -300 -423 -205 -128 -441
-141 -659 -36 -71 35 -101 58 -176 133 -140 141 -198 276 -198 466 -1 309 207
586 493 658 75 19 82 20 176 21 60 1 116 -5 166 -18z"/>
</g>
</svg>
