<svg xmlns="http://www.w3.org/2000/svg" version="1.0" width="512.000000pt" height="512.000000pt" viewBox="0 0 512.000000 512.000000" preserveAspectRatio="xMidYMid meet">
    <g transform="translate(0.000000,512.000000) scale(0.100000,-0.100000)" fill="#c27aff" stroke="none">
        <path d="M333 4824 c-57 -21 -128 -86 -161 -148 l-27 -51 -3 -1107 -2 -1108 1435 0 1435 0 0 183 c0 205 13 288 57 368 57 106 141 177 259 221 57 21 74 22 562 26 l503 4 -3 706 -3 707 -27 51 c-15 28 -48 70 -73 92 -89 78 83 72 -2024 71 -1638 0 -1891 -3 -1928 -15z m552 -379 c49 -48 39 -65 -133 -237 -170 -170 -184 -178 -236 -137 -19 15 -26 29 -26 57 0 34 12 48 153 189 134 135 157 153 185 153 22 0 41 -9 57 -25z m394 -123 c24 -19 31 -66 13 -97 -6 -11 -134 -142 -284 -292 -182 -181 -282 -274 -301 -279 -43 -10 -81 22 -85 72 -3 39 -1 40 286 327 253 252 292 287 319 287 17 0 41 -8 52 -18z"/>
        <path d="M3390 3041 c-55 -17 -110 -53 -148 -96 -77 -87 -72 -4 -72 -1280 0 -1305 -7 -1199 89 -1296 95 -94 53 -90 832 -87 l674 3 42 23 c66 35 110 79 140 140 l28 57 3 1139 c3 1272 6 1201 -67 1294 -27 34 -59 59 -98 78 l-58 29 -670 2 c-368 1 -681 -2 -695 -6z m845 -286 c31 -30 32 -71 3 -102 -21 -22 -28 -23 -165 -23 -130 0 -145 2 -163 20 -27 27 -27 83 2 110 20 18 35 20 160 20 134 0 140 -1 163 -25z m495 -1090 l0 -795 -660 0 -660 0 0 795 0 795 660 0 660 0 0 -795z m-531 -991 c12 -15 21 -37 21 -49 0 -12 -9 -34 -21 -49 -20 -25 -24 -26 -125 -26 -120 0 -144 12 -144 75 0 63 24 75 144 75 101 0 105 -1 125 -26z"/>
        <path d="M142 2083 c3 -170 5 -180 30 -229 15 -28 48 -70 73 -92 88 -77 -16 -72 1452 -72 l1313 0 0 285 0 285 -1436 0 -1436 0 4 -177z m2339 -22 c35 -36 37 -61 5 -98 l-24 -28 -196 0 c-188 0 -196 1 -217 22 -32 31 -30 80 5 110 26 22 33 23 212 23 l186 0 29 -29z"/>
        <path d="M1701 1407 c-32 -67 -70 -150 -86 -185 l-28 -62 -212 0 c-208 0 -212 0 -233 -23 -29 -31 -28 -72 3 -102 l24 -25 921 0 920 0 0 75 0 75 -33 0 -33 0 -84 185 -85 185 -508 0 -508 0 -58 -123z"/>
    </g>
</svg>